<?xml version="1.0" encoding="utf-8"?>
<!-- Generator: Adobe Illustrator 22.0.1, SVG Export Plug-In . SVG Version: 6.00 Build 0)  -->
<svg version="1.1" id="Layer_1" xmlns="http://www.w3.org/2000/svg" xmlns:xlink="http://www.w3.org/1999/xlink" x="0px" y="0px"
	 viewBox="0 0 200 200" style="enable-background:new 0 0 200 200;" xml:space="preserve">
<style type="text/css">
	.st0{fill:none;stroke:#5AD43A;stroke-miterlimit:10;}
	.st1{fill:#CDCFD0;}
	.st2{fill:#BA272D;}
	.st3{fill:none;stroke:#FFFFFF;stroke-width:0.5;stroke-miterlimit:10;}
	.st4{fill:#5AD43A;}
	.st5{fill:#FFFFFF;}
	.st6{fill:none;}
	.st7{fill:#37CB9A;}
	.st8{fill:#33A4FE;}
	.st9{fill:#5063CB;}
	.st10{fill:#E54361;}
	.st11{fill:#E46039;}
	.st12{fill:#AE5CFB;}
	.st13{fill:#0033B4;}
	.st14{fill:#E436C6;}
	.st15{fill:#FFC700;}
	.st16{fill:#202020;}
	.st17{fill:#00FF00;}
	.st18{fill:#FF2020;}
	.st19{fill:#B8BABC;}
	.st20{opacity:0.5;}
	.st21{fill:#AD272D;}
	.st22{fill:#80B53F;}
	.st23{fill:#80B240;}
	.st24{fill:#AE272D;}
	.st25{fill:#E80A2A;}
	.st26{fill:#00AAEB;}
	.st27{fill:#214096;}
	.st28{fill:#39B14A;}
	.st29{fill:#EB1C24;}
	.st30{fill:#231F20;}
	.st31{fill:#1B75B8;}
	.st32{fill-rule:evenodd;clip-rule:evenodd;fill:#FFFFFF;}
	.st33{fill:#89C23F;}
	.st34{fill:#B70A0D;}
</style>
<path class="st13" d="M182,86.3c-0.2-7.7-0.7-15.4-1.2-23.1c-0.1-2.1-0.4-5.3-1.2-7.4c-1.7-4.6-2.3-9.1-15.7-10.4
	c-6.1-0.6-12.3-0.7-18.5-1c-13.2-0.8-26.4-1.1-39.6-1c-8.3,0.1-16.7,0.3-25,0.8c-6.4,0.4-12.7,0.7-19.1,1.1c-2,0.1-4,0.2-6,0.4
	c-12.3,1.3-12.7,7.5-13.4,9.9c-0.6,1.9-1.2,4.8-1.3,6.8c-0.3,5.2-0.6,10.4-0.9,15.6c-0.1,1.5-0.2,3-0.2,4.4c-1.9,0-3.8,0-5.8,0
	c-1.6,0.1-3.2,0.1-4.9,0.2c-1.5,0.1-2.9,0.1-4.4,0.2c-1.8,0.1-3.1,0.9-4.2,2.2c-1.6,2-2.5,4.2-2.6,6.8c-0.2,3.7-0.4,7.4-0.4,11.1
	c0,0.2,0,0.4-0.1,0.7c0,5.8,0,11.6,0,17.4c0,0.4,0.1,0.7,0.1,1.1c0,5.8,0.2,11.6,0.5,17.3c0.1,3.6,0.3,7.2,0.5,10.8
	c0.2,3,1.2,5.7,3.6,7.7c1,0.8,2.1,1.1,3.3,1.2c5.4,0.2,10.8,0.3,16.2,0.3c5.6,0,11.1-0.2,16.7-0.5c0.5,0,1.1,0,1.6,0
	c1.4,0,2.6-0.6,3.5-1.5c2.1-2,3-4.6,3.2-7.4c0.3-4.3,0.5-8.6,0.7-12.9c0.1-3.5,0.2-7,0.3-10.5c0.2-6.6,0.2-13.3,0.1-19.9
	c0-5-0.1-9.9-0.6-14.9c-0.2-2.7-1.2-5.1-3.2-7c-1-1-2.2-1.5-3.6-1.5c-3.8-0.2-7.6-0.5-11.3-0.6c0.1-3.1,0.3-6.1,0.5-9.2
	c0.2-3.3,0.5-6.6,0.6-9.8c0.2-5,4.5-9.7,10.1-10c5.7-0.3,11.4-0.7,17.1-1c11.1-0.6,22.2-1,32.7-0.9c14.6-0.1,28.6,0.5,42.5,1.4
	c3.1,0.2,6.2,0.3,9.3,0.7c4.7,0.5,8.8,4.8,9.1,9.5c0.5,7.9,0.9,15.8,1.3,23.7c0.4,9.8,0.4,19.6,0.3,29.5c-0.1,5.4-0.4,10.7-0.5,16.1
	c0,0.8-0.3,1.2-1.2,1.2c-7.8,0.2-15.5,0.6-23.3,0.9c-13.7,0.4-27.4,0.6-41.1,0.5c-7.4-0.1-14.8-0.2-22.2-0.4
	c-5.5-0.1-11.1-0.3-16.6-0.5c0,0.3,0,0.6,0,0.8c-0.1,3.5-0.2,7-0.3,10.5c0,0.6,0,1.1-0.1,1.7c6,0.3,11.9,0.5,17.9,0.7
	c3.3,0.1,6.6,0.2,9.8,0.3c0.9,0,1.3,0.3,1.3,1.3c0,1.2,0.1,2.4,0.1,3.6c0,1.7,0,1.7-1.6,1.7c-2.8-0.1-5.6-0.1-8.4-0.2
	c-0.8,0-1.6,0-2,0.8c-0.5,1-0.3,2-0.1,3.1c0,0.3,0.4,0.3,0.7,0.3c0.7,0.1,1.4,0.1,2.1,0.1c4.8,0.1,9.5,0.3,14.3,0.3
	c0.5,0,0.9,0.1,1.4,0.1c6.5,0,13,0,19.5,0c0.6-0.2,1.1-0.1,1.7-0.1c3.9-0.1,7.8-0.2,11.7-0.2c0.9,0,1.2-0.4,1.2-1.2
	c0-0.3,0-0.6,0-0.9c0-1.5-0.7-2.2-2.2-2.2c-1.9,0-3.9,0.1-5.8,0.2c-1.5,0-2.9,0-4.4,0c-0.7,0-1-0.3-1-1c0.1-1.4,0.1-2.9,0.1-4.3
	c0-0.9,0.3-1.2,1.2-1.2c4,0,8-0.1,12.1-0.2c7.7-0.2,15.5-0.5,23.2-0.9c2.1-0.1,4.2-0.2,6.2-0.3c4.5-0.3,14.9-3.9,15.1-10.7
	c0.1-3.9,0.3-7.8,0.5-11.7c0.1-2.8,0.2-5.7,0.3-8.5c0-7.2,0-14.4,0-21.5C182.2,91.6,182.1,89,182,86.3z M45.2,153.4
	c-0.6,0.4-1.3,0.6-1.7,0.5c-1.5,0-2.6-0.5-3.4-1.4c-1.3-1.4-1-3.4,0.5-4.7c1.3-1.1,3.5-1.3,5-0.4c1.1,0.7,1.6,1.6,1.6,2.9
	C47.1,151.7,46.3,152.7,45.2,153.4z M58.9,97.8v3.8H26.8v-3.8H58.9z M118.8,154.1c0,0.6-0.3,0.9-0.8,0.9c-4.8,0-9.5,0-14.3,0
	c-0.7,0-1.1-0.4-1.2-1.1c-0.4-3.3-0.3-3.4,2.9-3.4c1.8,0,3.6,0,5.3,0c0,0,0,0.1,0,0.1c2.3,0,4.6,0,6.8,0c0.9,0,1.3,0.3,1.2,1.2
	C118.8,152.6,118.8,153.4,118.8,154.1z"/>
</svg>
