<?xml version="1.0" encoding="utf-8"?>
<!-- Generator: Adobe Illustrator 22.0.1, SVG Export Plug-In . SVG Version: 6.00 Build 0)  -->
<svg version="1.1" id="Layer_1" xmlns="http://www.w3.org/2000/svg" xmlns:xlink="http://www.w3.org/1999/xlink" x="0px" y="0px"
	 viewBox="0 0 200 200" style="enable-background:new 0 0 200 200;" xml:space="preserve">
<style type="text/css">
	.st0{fill:none;stroke:#5AD43A;stroke-miterlimit:10;}
	.st1{fill:#CDCFD0;}
	.st2{fill:#BA272D;}
	.st3{fill:none;stroke:#FFFFFF;stroke-width:0.5;stroke-miterlimit:10;}
	.st4{fill:#5AD43A;}
	.st5{fill:#FFFFFF;}
	.st6{fill:none;}
	.st7{fill:#37CB9A;}
	.st8{fill:#33A4FE;}
	.st9{fill:#5063CB;}
	.st10{fill:#E54361;}
	.st11{fill:#E46039;}
	.st12{fill:#AE5CFB;}
	.st13{fill:#0033B4;}
	.st14{fill:#E436C6;}
	.st15{fill:#FFC700;}
	.st16{fill:#202020;}
	.st17{fill:#00FF00;}
	.st18{fill:#FF2020;}
	.st19{fill:#B8BABC;}
	.st20{opacity:0.5;}
	.st21{fill:#AD272D;}
	.st22{fill:#80B53F;}
	.st23{fill:#80B240;}
	.st24{fill:#AE272D;}
	.st25{fill:#E80A2A;}
	.st26{fill:#00AAEB;}
	.st27{fill:#214096;}
	.st28{fill:#39B14A;}
	.st29{fill:#EB1C24;}
	.st30{fill:#231F20;}
	.st31{fill:#1B75B8;}
	.st32{fill-rule:evenodd;clip-rule:evenodd;fill:#FFFFFF;}
	.st33{fill:#89C23F;}
	.st34{fill:#B70A0D;}
</style>
<g>
	<path class="st12" d="M100.1,111.9c-1.9,0-3.4,1.5-3.4,3.1c0,1.7,1.5,3,3.4,3c1.8,0,3.5-1.5,3.5-3.1
		C103.7,113.4,101.9,111.8,100.1,111.9z"/>
	<path class="st12" d="M123.7,95.8c-0.1-2.3-0.8-3-3.1-3.1c-0.8,0-1.7,0-2.5-0.1c-10.5-0.8-21-1.2-31.5-0.7
		c-3.1,0.1-6.3,0.3-9.4,0.5c-1.4,0.1-2.1,0.7-2.2,2c-0.3,4.6-0.7,9.3-0.8,13.9c-0.1,8.3,0.2,16.5,1.2,24.8c0.3,2.3,0.7,2.9,3,3.1
		c6.8,0.6,13.5,1,20.4,0.9c7.2,0.1,14.6-0.3,21.9-1.1c1.3-0.1,2-0.7,2.3-2.1c0.5-2.7,0.5-5.4,0.8-8.1c0.7-7.2,0.7-14.4,0.3-21.6
		C124.1,101.4,123.8,98.6,123.7,95.8z M121,111.7c-0.8,3.3-3.2,5.2-7,5.7c-1.7,0.2-3.4,0.4-5.1,0.2c-1.3-0.2-1.5,0.9-1.9,1.6
		c-0.5,0.8,0.3,1.1,0.7,1.5c1.3,1.2,2.7,2.3,4,3.6c2.6,2.4,2.2,5.8-0.8,7.6c-2.5,1.5-5.2,2-8.1,1.5c-3.6-0.6-5.4-2.7-6-7.1
		c-0.1-1.1-0.1-2.2,0-3.3c0.1-1.2-0.5-1.8-1.5-2.3c-1-0.5-1.4,0.3-1.9,0.8c-1.4,1.2-2.7,2.5-4.1,3.7c-3.1,2.7-7.5,1.8-9.4-1.9
		c-0.5-1-0.9-2-1.1-3.1c-0.7-3.6,0.9-6.4,4.3-7.7c2.1-0.8,4.4-0.9,6.6-0.8c0.7,0,1.4,0.1,2.1,0.2c1,0.1,1.5-0.5,1.8-1.2
		c0.3-0.7-0.4-1-0.7-1.4c-1.6-1.5-3.3-3-5-4.5c-2.7-2.5-2.4-5.9,0.7-7.8c2.7-1.7,5.7-2.2,8.8-1.5c3.2,0.7,5.3,3.3,5.6,6.8
		c0.2,1.5,0.4,3,0.1,4.4c-0.1,0.9,0.1,1.5,1,1.9c0.9,0.5,1.5,0.2,2.1-0.4c1.5-1.4,3-2.8,4.6-4.1c3.3-2.9,7.4-2,9.3,1.9
		C121,107.8,121.5,109.7,121,111.7z"/>
	<path class="st12" d="M77.2,81.8c2.4,0.1,4.9,0.2,7.3,0.4c8.7,0.6,17.4,0.7,26.1,0.4c3.4-0.1,6.7-0.3,10.1-0.5
		c2.2-0.1,2.8-0.6,3-2.8c0.4-4.4,0.3-8.9,0.4-13.4c0.2-5.6-0.4-11.2-0.8-16.8c-0.2-3-0.5-5.9-0.9-8.9c-0.2-1.9-0.8-2.3-2.6-2.5
		c-3.4-0.3-6.9-0.7-10.3-0.9c-7.7-0.4-15.4-0.7-23.1-0.1c-2.7,0.2-5.4,0.3-8.1,0.5c-1.8,0.1-2.6,0.7-2.8,2.1
		C74.4,48,74,56.7,74,64.2c-0.1,5.8,0.3,10.5,0.7,15.2C74.8,81.1,75.5,81.7,77.2,81.8z M78.3,53.1c1.1-3.6,3.4-6.2,7.3-6.9
		c2.9-0.5,5.4,1,7.6,2.7c1.1,0.8,2,1.8,2.9,2.8c0.6,0.7,1.2,0.5,1.9,0.4c0.7-0.2,0.8-0.8,0.8-1.4c0-2.1,0-4.2,0-6.3
		c0-2.7,1.7-4.6,4.5-4.9c3.9-0.4,8.5,2.3,9.9,6c0.7,1.8,0.3,3.4-0.6,5c-0.9,1.7-2.4,3-3.8,4.3c-0.3,0.3-0.7,0.6-1,0.9
		c-0.5,0.5-0.5,1-0.3,1.7c0.2,0.7,0.7,0.8,1.3,0.8c1.9,0.1,3.8,0.2,5.8,0.2c2.4,0,4.5,0.4,5.9,2.7c1.4,2.3,0.8,4.5-0.5,6.7
		c-1.8,2.9-4.3,4.8-7.9,4.4c-2.2-0.2-3.9-1.4-5.6-2.7c-1-0.8-1.9-1.7-2.8-2.6c-0.9-1-1.8-0.2-2.7-0.1c-0.8,0.1-0.7,0.9-0.7,1.5
		c0,1.8,0.1,3.7,0.1,5.5c0,3.6-3.3,6.1-6.8,5.1c-2.1-0.6-4.1-1.3-5.7-2.8c-3.1-2.9-3.4-6.4-0.7-9.8c1.1-1.4,2.2-2.7,3.7-3.7
		c0.9-0.6,0.8-1.3,0.5-2.2c-0.2-0.9-0.9-0.8-1.6-0.9c-1.1,0-2.3,0-3.4,0c-1.1,0-2.3,0-3.4,0C79.4,59.5,77.2,56.6,78.3,53.1z"/>
	<path class="st12" d="M99.6,62.5c1.8,0,3.4-1.4,3.4-3.1c0-1.8-1.5-3.2-3.4-3.2c-1.8,0-3.5,1.5-3.5,3C96,60.8,97.8,62.5,99.6,62.5z"
		/>
	<path class="st12" d="M146.2,82.5c0-10.8-0.4-21.5-0.9-32.2c-0.4-9.2-1-18.3-1.5-27.5c-0.2-2.7-1.5-4.2-4.1-4.4
		c-4-0.3-8.1-0.5-12.2-0.7c-6.4-0.3-12.7-0.6-19.1-0.6c-0.4,0-0.8-0.1-1.2-0.1c-7.4,0-14.7,0-22.1,0c-0.7,0.2-1.5,0.1-2.2,0.2
		c-7.7,0-15.4,0.5-23.1,0.8c-2.4,0.1-3.9,1.7-4.1,4.4c-0.3,3.6-0.4,7.2-0.6,10.9c-0.6,13.2-1.3,26.5-1.4,39.7c0,0.4-0.1,0.9-0.1,1.3
		c0,7.3,0,14.5,0,21.8c0.1,0.8,0.1,1.6,0.1,2.3c0.1,12.2,0.6,24.4,1.3,36.6c0.4,7.2,0.7,14.3,1.1,21.5c0.3,6.4,0.7,12.8,1,19.1
		c0.1,1,0.5,1.5,1.5,1.5c1.6,0,3.2,0.1,4.9,0.1c1,0,1.6,0.4,1.6,1.6c0,0.6,0.2,1.2,0.1,1.8c-0.2,1.5,0.6,1.9,2,2
		c2.6,0.2,5.3-0.1,7.9,0.3c1.8,0,3.5,0,5.3,0c0-1.2,0.1-2.4,0-3.5c-0.1-1.1,0.3-1.5,1.5-1.5c7.3,0.1,14.5,0.1,21.8,0
		c5,0,10.1-0.2,15.1-0.4c1,0,1.4,0.3,1.3,1.3c0,0.9,0,1.7,0,2.6c0,0.8,0.3,1.2,1.2,1.2c4-0.2,8-0.3,12.1-0.5c1,0,1.4-0.5,1.5-1.4
		c0-0.7,0.1-1.4,0.1-2.1c-0.1-1.2,0.3-1.8,1.6-1.8c1.5,0,3.1-0.2,4.6-0.2c1,0,1.5-0.4,1.5-1.5c0.3-5.2,0.6-10.5,1-15.7
		c0.4-6.5,0.8-13,1.2-19.5c0.4-6.5,0.6-13,0.9-19.5c0.4-8,0.6-15.9,0.6-23.9c0-0.4,0.1-0.9,0.1-1.3c0-3.5,0-7,0-10.5
		C146.3,84,146.2,83.3,146.2,82.5z M100.4,165.4c-1.9,0-3.3-1.4-3.3-3c0-1.7,1.6-2.9,3.5-2.9c1.9,0,3.4,1.3,3.4,2.9
		C104,164,102.3,165.4,100.4,165.4z M135.3,105.4c-0.1,7.5-0.4,15-0.7,22.5c-0.2,4.1-0.5,8.1-0.6,12.2c0,0.9-0.4,1.3-1.3,1.3
		c-2.3,0.1-4.6,0.3-6.9,0.4c-13,0.5-26,0.7-39,0.5c-6.2-0.1-12.4-0.2-18.7-0.6c-1.3-0.1-1.7-0.6-1.7-1.8c-0.2-5.6-0.5-11.1-0.7-16.7
		c-0.5-14.4-0.9-28.8-0.8-43.2c0.1-9.4,0.3-18.8,0.6-28.2c0.2-6.1,0.5-12.3,0.7-18.4c0.1-2,0.1-2,2-2.1c10.5-0.5,21.1-0.7,31.7-0.6
		c10.6,0.1,21.1,0.4,31.6,1c1.9,0.1,2,0.2,2.1,2.1c0.4,10.3,1,20.6,1.3,30.9C135.4,78.2,135.4,91.8,135.3,105.4z"/>
</g>
</svg>
