<?xml version="1.0" encoding="utf-8"?>
<!-- Generator: Adobe Illustrator 22.0.1, SVG Export Plug-In . SVG Version: 6.00 Build 0)  -->
<svg version="1.1" id="Layer_1" xmlns="http://www.w3.org/2000/svg" xmlns:xlink="http://www.w3.org/1999/xlink" x="0px" y="0px"
	 viewBox="0 0 200 200" style="enable-background:new 0 0 200 200;" xml:space="preserve">
<style type="text/css">
	.st0{fill:none;stroke:#5AD43A;stroke-miterlimit:10;}
	.st1{fill:#CDCFD0;}
	.st2{fill:#BA272D;}
	.st3{fill:none;stroke:#FFFFFF;stroke-width:0.5;stroke-miterlimit:10;}
	.st4{fill:#5AD43A;}
	.st5{fill:#FFFFFF;}
	.st6{fill:none;}
	.st7{fill:#37CB9A;}
	.st8{fill:#33A4FE;}
	.st9{fill:#5063CB;}
	.st10{fill:#E54361;}
	.st11{fill:#E46039;}
	.st12{fill:#AE5CFB;}
	.st13{fill:#0033B4;}
	.st14{fill:#E436C6;}
	.st15{fill:#FFC700;}
	.st16{fill:#202020;}
	.st17{fill:#00FF00;}
	.st18{fill:#FF2020;}
	.st19{fill:#B8BABC;}
	.st20{opacity:0.5;}
	.st21{fill:#AD272D;}
	.st22{fill:#80B53F;}
	.st23{fill:#80B240;}
	.st24{fill:#AE272D;}
	.st25{fill:#E80A2A;}
	.st26{fill:#00AAEB;}
	.st27{fill:#214096;}
	.st28{fill:#39B14A;}
	.st29{fill:#EB1C24;}
	.st30{fill:#231F20;}
	.st31{fill:#1B75B8;}
	.st32{fill-rule:evenodd;clip-rule:evenodd;fill:#FFFFFF;}
	.st33{fill:#89C23F;}
	.st34{fill:#B70A0D;}
</style>
<g>
	<path class="st11" d="M35.7,99.8c0-24.8,0-49.6,0-74.4c0-7.3,0.9-8.2,8-8.2c37.6,0,75.2,0,112.9,0c6.7,0,7.8,1.1,7.8,7.9
		c0,49.9,0,99.7,0,149.6c0,6.4-1.4,7.8-7.7,7.8c-37.9,0-75.8,0-113.7,0c-6,0-7.2-1.2-7.2-7.2C35.7,150.3,35.7,125.1,35.7,99.8z
		 M53.4,76.9c-0.1,27.5,22.3,48.5,50.2,46.9c3.2-0.2,5.1,0.6,6.8,3.3c4.6,7.1,9.6,13.9,14.2,21c3.8,5.7,8.9,8.4,15.6,7.3
		c6-1.1,9.8-5,11.2-10.9c1.6-6.7-1.4-11.5-6.6-15.4c-4.8-3.6-9.4-7.4-14.3-10.8c-3-2.1-2.8-3.4-0.1-5.8c11.8-10.6,17-23.9,15.6-39.8
		c-2-23.7-24.8-44.7-51.8-41.2C71.1,34.3,53.5,53.7,53.4,76.9z M99.4,174.7c10.3,0,20.7-0.1,31,0.1c4.2,0.1,4.2-2.4,4.2-5.3
		c0-3,0.4-5.8-4.3-5.7c-20.4,0.2-40.8,0.2-61.2,0c-4.6,0-4.3,2.5-4.4,5.6c0,3.2-0.1,5.7,4.4,5.5C79.3,174.5,89.3,174.7,99.4,174.7z
		 M48.9,37.3c3.7,0,6.8-2.9,6.8-6.5c0-3.4-3.2-6.9-6.5-7c-3.4-0.1-7,3.4-7,7C42.1,34.4,45.1,37.3,48.9,37.3z M55.6,168.5
		c0-3.6-3-6.5-6.7-6.5c-3.7,0-6.8,2.9-6.8,6.5c0,3.6,3.5,7.1,7,7C52.4,175.3,55.6,171.9,55.6,168.5z M152.3,23.9
		c-3.4,0.1-6.7,3.4-6.8,6.8c-0.1,3.6,3.4,6.9,7.1,6.7c3.7-0.2,6.4-3.1,6.4-6.9C158.9,26.8,155.8,23.8,152.3,23.9z M159,168.6
		c0-3.7-2.8-6.6-6.5-6.7c-3.4-0.1-6.9,3.2-6.9,6.5c-0.1,3.5,3.5,7.1,6.9,7C156,175.3,159,172.3,159,168.6z M59,125.1
		c-5.5-0.1-9.8,4.1-9.9,9.4c-0.1,5.2,4,9.5,9.2,9.6c5.6,0.1,9.8-3.9,9.8-9.4C68.1,129.4,64.1,125.2,59,125.1z"/>
	<path class="st11" d="M99.9,35.3c18.1,0.2,34,11.2,40.1,28c6.2,16.9,1.2,35.5-12.3,47.3c-2.9,2.5-5.1,3-8.3,0.4
		c-7.3-5.8-14.8-11.3-22.2-17c-1.6-1.2-3.3-2.8-5.4-1c-2.3,2-0.8,3.9,0.5,5.8c3.9,5.8,8,11.5,11.9,17.3c2.2,3.3,1.6,4.3-2.3,4.6
		c-22.3,1.8-43.5-17.8-44.4-40.2c-1-23.1,15.2-40.8,34.8-44.4C94.6,35.7,97.3,35.6,99.9,35.3z M101.7,93.7
		c6.8,5.1,12.8,9.5,18.5,14.1c2.5,2,4,1.7,6.3-0.4c14-13.1,17.2-32.8,7.9-49.1c-9.3-16.2-28.2-23.6-46.3-18.2
		c-18,5.4-29.6,23.3-27.6,42.6c1.9,18.2,18.1,33.7,36.5,34.9c1.1,0.1,2.6,0.6,3.2-0.6c0.6-1.2-0.6-2.1-1.3-3
		c-3.3-4.8-6.6-9.6-9.9-14.4c-1.3-1.9-2.5-4.1-1.2-6.1c2.1-3.1,0.7-5-1-7.6c-3.8-5.6-2.8-13.2,1.9-18.1c5.1-5.4,12.2-6.5,18.7-2.9
		c5.9,3.3,8.8,10.1,7.3,16.8C113.2,88.2,108.6,91.6,101.7,93.7z M111.9,78.5c0.1-6.9-5.1-12.5-11.7-12.7c-6.5-0.2-12.5,5.5-12.6,12
		c-0.1,6.7,5.8,12.7,12.4,12.7C106.4,90.5,111.8,85,111.9,78.5z"/>
	<path class="st11" d="M95.2,96.8c1.6-0.2,2.5,1.1,3.6,1.9c14.8,11.1,29.4,22.3,44.2,33.5c3.6,2.7,6.1,6,5.5,10.7
		c-0.6,4.4-3.1,7.6-7.4,8.9c-4.4,1.4-8.8,0.3-11.4-3.4c-11.6-16.5-23-33.3-34.5-49.9C94.9,98,94.6,97.4,95.2,96.8z"/>
	<path class="st11" d="M59,141.6c-3.7,0.1-7.1-3-7.2-6.7c-0.1-3.5,3.1-7,6.7-7.2c3.7-0.2,7,2.9,7.1,6.7
		C65.7,138.2,62.7,141.5,59,141.6z"/>
	<path class="st11" d="M107.5,78.1c0,3.9-3.5,7.4-7.5,7.6c-4.1,0.1-7.4-3.1-7.5-7.4c-0.1-4.5,3.1-7.8,7.6-7.7
		C104.2,70.6,107.5,74,107.5,78.1z"/>
</g>
</svg>
