<?xml version="1.0" encoding="utf-8"?>
<!-- Generator: Adobe Illustrator 22.0.1, SVG Export Plug-In . SVG Version: 6.00 Build 0)  -->
<svg version="1.1" id="Layer_1" xmlns="http://www.w3.org/2000/svg" xmlns:xlink="http://www.w3.org/1999/xlink" x="0px" y="0px"
	 viewBox="0 0 200 200" style="enable-background:new 0 0 200 200;" xml:space="preserve">
<style type="text/css">
	.st0{fill:none;stroke:#5AD43A;stroke-miterlimit:10;}
	.st1{fill:#CDCFD0;}
	.st2{fill:#BA272D;}
	.st3{fill:none;stroke:#FFFFFF;stroke-width:0.5;stroke-miterlimit:10;}
	.st4{fill:#5AD43A;}
	.st5{fill:#FFFFFF;}
	.st6{fill:none;}
	.st7{fill:#37CB9A;}
	.st8{fill:#33A4FE;}
	.st9{fill:#5063CB;}
	.st10{fill:#E54361;}
	.st11{fill:#E46039;}
	.st12{fill:#AE5CFB;}
	.st13{fill:#0033B4;}
	.st14{fill:#E436C6;}
	.st15{fill:#FFC700;}
	.st16{fill:#202020;}
	.st17{fill:#00FF00;}
	.st18{fill:#FF2020;}
	.st19{fill:#B8BABC;}
	.st20{opacity:0.5;}
	.st21{fill:#AD272D;}
	.st22{fill:#80B53F;}
	.st23{fill:#80B240;}
	.st24{fill:#AE272D;}
	.st25{fill:#E80A2A;}
	.st26{fill:#00AAEB;}
	.st27{fill:#214096;}
	.st28{fill:#39B14A;}
	.st29{fill:#EB1C24;}
	.st30{fill:#231F20;}
	.st31{fill:#1B75B8;}
	.st32{fill-rule:evenodd;clip-rule:evenodd;fill:#FFFFFF;}
	.st33{fill:#89C23F;}
	.st34{fill:#B70A0D;}
</style>
<g>
	<path class="st9" d="M163.5,54c0.1-2.4-1.8-4.7-3.9-4.8c-2.5-0.1-4.1,1.3-4.5,3.8c-0.3,2.5,1.6,4.6,4.1,4.6
		C161.8,57.7,163.1,56.2,163.5,54z"/>
	<path class="st9" d="M129.2,123.9c13.5-0.1,24.7-11.5,24.7-25c0-13.6-11.2-24.9-24.7-24.9C115.4,73.8,104,85.2,104,98.9
		C104,112.4,115.7,124,129.2,123.9z M116.1,90c1.6,0.9,3.2,2.1,5.8,2c0-3.2-0.1-6.2,0-9.1c0.2-4.3,2.4-6.4,6.7-6.7
		c2.7-0.2,5.3-0.1,7.9,0.7c3.7,1.1,4.7,3.1,2.9,6.5c-1.4,2.6-3.2,4.9-3.6,8.1c2.8,0.9,5.4-0.1,8,0.1c5.9,0.4,7.8,2.4,7.9,8.3
		c0,0.6,0,1.2,0,1.8c-0.2,8.7-2.5,10-9.9,6c-1.6-0.9-3.2-2.2-5.4-1.8c-1.1,1.7-0.1,3.4,0.1,5.1c0.7,7.6-2.5,11.1-10.2,10.7
		c-0.7,0-1.5-0.1-2.2-0.2c-7.2-1.2-7.9-2.8-4.3-9.2c1-1.8,2.3-3.5,2.2-5.9c-1.8-1-3.7-0.2-5.5-0.2c-8.3,0.4-11.5-3.2-10.3-11.2
		C107.5,86.7,108.9,86,116.1,90z"/>
	<path class="st9" d="M133.4,53.5c-0.6-2.3-1.7-4.1-4.3-4.2c-2.3-0.2-4.6,2.2-4.3,4.5c0.3,2.5,1.8,4,4.4,3.9
		C131.8,57.6,133,56,133.4,53.5z"/>
	<path class="st9" d="M73.2,159.7c-2.5-0.4-4.7,1.3-4.9,3.8c-0.2,2.6,1.5,4.7,4.1,4.8c2.6,0.1,4-1.4,4.5-3.8
		C76.8,161.9,75.7,160.1,73.2,159.7z"/>
	<path class="st9" d="M117.4,101.7c1.2-0.2,2.4-0.3,2.6-1.8c0.2-1.5,0.2-3-1.5-3.7c-2.3-0.9-4.2-2.5-7-3
		C110,100.7,111.3,102.6,117.4,101.7z"/>
	<path class="st9" d="M129,103.4c2.5-0.6,4.4-1.8,4.4-4.6c0-2.7-1.7-4.4-4.4-4.5c-2.7-0.1-4.4,1.8-4.5,4.4
		C124.5,101.4,126.3,103,129,103.4z"/>
	<path class="st9" d="M146.4,104.3c1.2-2.4,1.9-5,0-7c-2.1-2.3-5.1-1.2-7.7-0.9C137,100.6,137.1,100.8,146.4,104.3z"/>
	<path class="st9" d="M49.8,168.3c2.9,0,5-2.1,4.8-4.5c-0.2-2.6-1.7-4-4.3-4.1c-2.5-0.1-4.7,2.1-4.4,4.5
		C46.1,166.6,47.5,168.2,49.8,168.3z"/>
	<path class="st9" d="M131.7,110.7c-0.1-1.4-0.2-2.7-2-2.9c-1.4-0.1-2.7,0.1-3.4,1.5c-1.1,2.2-2.1,4.5-3.2,7
		C130.8,118,132.4,116.9,131.7,110.7z"/>
	<path class="st9" d="M50.8,38.6c-5.2-0.1-5.2,0-5.2,5.1c0,20.9,0,41.8,0,62.8c0,3.4,0,6.8,0,10.2c0,1.6,0.3,3,2.3,3.1
		c4.8,0.1,9.6,0.5,14.5-0.3c0-27,0-53.6,0-80.3C58.4,38.1,54.6,38.7,50.8,38.6z"/>
	<path class="st9" d="M128,89.7c1.5,0.1,2.9,0.2,3.7-1.6c0.9-2.1,2-4.2,3.1-6.6c-7.3-2-9.5-0.5-8.8,5.3
		C126.2,88.1,126.3,89.6,128,89.7z"/>
	<path class="st9" d="M54.6,142.1c0-2.3-2.1-4.5-4.5-4.4c-2.6,0.1-4,1.7-4.4,4.1c-0.3,2.2,2,4.6,4.3,4.7
		C52.3,146.6,54.6,144.4,54.6,142.1z"/>
	<path class="st9" d="M72.1,137.6c-2.4,0.5-4,1.9-3.9,4.7c0.1,2.6,1.8,4.1,4.2,4.1c2.6,0,4.4-1.6,4.4-4.4
		C76.8,139.2,75.1,137.9,72.1,137.6z"/>
	<path class="st9" d="M98.6,49.2c-2.5,0.2-4.1,1.8-4.2,4.3c0,2.5,1.5,4,4.1,4.2c2.7,0,4.1-1.5,4.4-4C103.3,51.5,100.9,49,98.6,49.2z
		"/>
	<path class="st9" d="M64.7,23.7c3.2,0,6.4,0,9.5-0.1C71.1,23.7,67.9,23.7,64.7,23.7z"/>
	<path class="st9" d="M38.5,23.7c0.2,0,0.4,0,0.6,0C38.9,23.7,38.7,23.7,38.5,23.7z"/>
	<path class="st9" d="M35.3,23.7c0.3,0,0.6,0,0.9,0C35.8,23.7,35.6,23.7,35.3,23.7z"/>
	<path class="st9" d="M59.5,27.9L59.5,27.9c0.2,0,0.4,0,0.6,0C59.9,28,59.7,27.9,59.5,27.9z"/>
	<path class="st9" d="M44.8,28c0.3,0,0.6,0,0.9,0C45.4,27.9,45.1,28,44.8,28z"/>
	<path class="st9" d="M63.5,141.9c-0.1,5,3.7,8.9,8.8,9c5.1,0.1,9.1-3.7,9.2-8.7c0.1-4.9-3.8-8.9-8.9-9
		C67.5,133.2,63.6,136.9,63.5,141.9z"/>
	<path class="st9" d="M59,142c0-5.2-3.7-8.8-9-8.7c-5.1,0.1-8.6,3.6-8.6,8.7c0,5.3,3.6,9,8.8,9C55.3,150.9,59,147.2,59,142z"/>
	<path class="st9" d="M45.7,27.9c-0.3,0-0.6,0-0.9,0c-3.2,0-6.5-0.1-9.7,0.1c-4.7,0.2-6.5,1.9-6.5,6.5c0,33.8,0,67.6,0,101.3
		c0,0.7,0.2,1.4,0.2,2.1c6.4,2.3,6.4,2.3,6.4,9.4c0,4.9,0,9.7,0,14.6c0,6.7,0,6.7-6.2,8.5c-0.8,5.2,0.8,7.4,5.7,7.5
		c5.8,0.1,11.5,0,17.3,0c39.4,0,78.8,0,118.2,0c6.6,0,8-1.4,8.1-8c0-44.4,0-88.8,0-133.2c0-7.4-1.3-8.6-8.9-8.6c-4.2,0-8.5,0-12.6,0
		c-1.6,7-1.6,7-8.3,7c-11.5,0-23,0-34.5,0c-6.1,0-6.3-0.1-7.4-6.2c-1.2-1.1-2.8-0.6-4.2-0.7c-2.3-0.2-3.7,0.6-3.7,3.2
		c0,2.8-1.7,3.9-4.4,3.8c-1.6,0-3.2,0-4.9,0c-6.7,0-6.7,0-8.4-6.4c-3.3-1.1-6.8-0.4-10.3-0.5c-3.5-0.1-7.1,0-10.6-0.1
		c-0.2,0-0.4,0-0.6,0H45.7L45.7,27.9z M164.7,169.4c-4.6,0.1-9.1,0-13.7,0c-3.4,0-6.8,0-10.2,0c-8,0-15.9,0-23.9,0
		c-0.9,0-1.8,0-2.7,0c-1.6,0-3-0.5-2.9-2.5c0-1.7,1.3-2.2,2.7-2.3c1-0.1,2.1,0,3.1,0c15.6,0,31.2,0,46.9,0c0.1,0,0.3,0,0.4,0
		c2.1,0.1,5.2-0.7,5.4,2.3C169.9,170.1,166.8,169.4,164.7,169.4z M93.5,155.3c-1.2,0-2.4,0-3.5-0.2c-1.2-0.2-1.7-1.1-1.6-2.2
		c0-1.1,0.7-1.6,1.7-1.7c1.2-0.2,2.3-0.2,3.5-0.2c23.7,0,47.4,0,71.1,0c1.9,0,5-0.9,5.1,1.9c0.1,3.2-3.1,2.4-5.1,2.4
		c-11.8,0.1-23.6,0-35.3,0C117.4,155.3,105.5,155.3,93.5,155.3z M159.3,44.9c5.2,0,8.6,3.3,8.7,8.4c0.1,5.1-3.7,9.1-8.7,9
		c-4.9,0-9-4.2-8.9-9.1C150.5,48.5,154.2,45,159.3,44.9z M158.8,71.7c0,1.7-0.6,2.9-2.4,3c-1.8,0.1-2.7-0.9-2.8-2.6
		c-0.1-1.6,0.6-2.9,2.4-3C157.6,69.1,158.7,70,158.8,71.7z M129,45c5.4,0,8.7,3.4,8.6,8.9c-0.1,4.9-3.9,8.6-8.7,8.5
		c-4.8,0-8.6-3.8-8.7-8.7C120.1,48.5,123.7,44.9,129,45z M129,69.5c16.6,0.1,29.3,13,29.2,29.6c-0.1,16.5-12.8,28.9-29.3,28.9
		c-16.7,0-29.3-12.7-29.2-29.5C99.8,82.2,112.7,69.4,129,69.5z M158.8,126.4c0,1.6-0.9,2.5-2.4,2.6c-1.8,0.1-2.8-0.8-2.8-2.6
		c0-1.5,0.7-2.5,2.6-2.6C157.7,123.8,158.8,124.5,158.8,126.4z M101.8,123.8c1.7,0,2.7,0.8,2.9,2.5c-0.1,1.8-1.1,2.7-2.8,2.7
		c-1.6,0-2.8-0.7-2.8-2.6C99,124.6,100.1,123.8,101.8,123.8z M99,71.9c0.1-1.7,1.2-2.5,2.8-2.8c1.6,0.3,2.7,1.2,2.8,2.8
		c0.1,1.9-1.1,2.9-3,2.8C99.9,74.6,99,73.6,99,71.9z M98.8,45c5.2,0,8.6,3.4,8.6,8.5c0,5.2-3.7,9-8.8,8.9c-4.9-0.1-8.5-3.7-8.6-8.7
		C89.9,48.4,93.4,44.9,98.8,45z M89.9,137c1.2-0.2,2.3-0.3,3.5-0.3c23.7,0,47.5,0,71.2,0c2,0,5.3-0.9,5.2,2.4c-0.1,2.8-3.1,2-5.1,2
		c-11.9,0-23.9,0-35.8,0c-11.8,0-23.6,0-35.4,0c-1.2,0-2.4,0-3.5-0.1c-1.2-0.2-1.7-1-1.7-2.2C88.4,137.8,89,137.2,89.9,137z
		 M90.9,164.7c2.8-0.1,5.6-0.1,8.4,0c1.4,0,2.7,0.6,2.7,2.3c0,1.7-1.2,2.3-2.6,2.4c-1.5,0.1-2.9,0-4.4,0c-1.3,0-2.7,0-4,0
		c-1.5-0.1-2.6-0.6-2.7-2.3C88.3,165.4,89.4,164.8,90.9,164.7z M50.3,173c-5,0.1-8.9-3.8-8.9-8.9c0-5.2,3.6-9.1,8.7-9.2
		c5-0.1,8.9,3.8,9,8.9C59.1,168.9,55.3,172.9,50.3,173z M41.4,141.9c0-5.1,3.5-8.6,8.6-8.7c5.3-0.1,9,3.5,9,8.7
		c0,5.2-3.7,8.9-8.9,8.9C44.9,150.9,41.3,147.2,41.4,141.9z M72.7,173c-4.9,0.1-9-3.9-9.1-8.8c-0.1-5,3.8-9.1,8.7-9.2
		c4.8-0.1,9.1,3.9,9.2,8.8C81.7,168.5,77.5,172.9,72.7,173z M81.5,142.2c-0.1,5-4.1,8.8-9.2,8.7c-5.1-0.1-8.9-3.9-8.8-9
		c0.1-5,3.9-8.7,9.1-8.7C77.7,133.3,81.6,137.3,81.5,142.2z M62.2,34.4c1.4,0,2.8,0.2,3.6,1.4c1.4,2.3,2.4,4.7,5.8,4.3
		c0.9-0.1,1.3,1,1.3,2c0,1-0.6,1.6-1.5,1.9c-1.1,0.3-2.3,0.5-3.4,0.7c-1.1,1.8-0.9,3.4-0.3,5c1.5,1.6,5.3-0.6,5.1,3
		c-0.1,3.1-3.6,1.1-5.1,2.8c-0.7,1.4-0.7,3.1,0,4.5c1.5,1.9,5.4-0.4,5.1,3.3c-0.2,2.9-3.2,1.3-5.1,2.6c-0.8,1.4-0.6,3-0.3,4.3
		c1.4,2.1,5.6-0.1,5.3,3.7c-0.2,2.8-3.1,1.4-4.8,2.4c-1.2,1.4-0.9,3.1-0.5,4.7c1.4,2.1,5.6-0.2,5.3,3.6c-0.2,2.7-3.1,1.5-4.8,2.2
		c-1.2,1.6-0.9,3.3-0.4,4.9c1.5,1.4,5.2-0.6,5.2,2.9c0,3.2-3.4,1.4-5.1,2.9c-0.9,1.4-0.7,3,0,4.7c1.5,1.6,5.2-0.5,5.1,3
		c-0.1,3.1-3.4,1.5-5.2,3.1c-0.8,1.2-0.6,2.9,0.2,4.4c1,0.8,2.1,0.6,3.1,0.7c1.2,0.2,1.9,0.8,2,2c0.1,1.5-0.8,2.2-2.2,2.2
		c-2.4-0.1-3.4,1-3.8,3.3c-0.4,2.5-2.3,3.7-4.8,3.7c-5.3,0-10.6,0-15.9,0c-2.5,0-4.4-1.2-4.7-3.7c-0.3-2.4-1.5-3.3-3.8-3.3
		c-1.3,0-2.3-0.7-2.3-2.1c0-1.4,1.1-2,2.4-2.1c1.9-0.1,3.4-0.5,3.5-2.9c0.1-2.4-1.2-3.1-3.2-3.3c-1.4-0.1-2.8-0.7-2.6-2.3
		c0.1-1.6,1.5-2,2.9-2c0.7,0,1.4-0.2,2.1-0.3c1.1-1.8,1-3.4,0.3-5c-1.6-1.6-5.4,0.1-5.2-3.2c0.1-2.8,3.3-1.8,4.9-2.4
		c1.2-1.6,0.7-3.2,0.5-4.9c-0.6-0.2-1.2-0.5-1.7-0.6c-1.7-0.1-3.6-0.2-3.8-2.2c-0.2-2.3,2-2.1,3.5-2.4c3.6-0.7,1.8-3.3,2.1-5
		c-0.6-0.5-0.8-0.7-1-0.8c-1.6-0.7-4.4,0.4-4.6-2.3c-0.2-2.5,2.3-2,3.9-2.6c3.1-1.1,1.8-3.4,1.4-5.3c-0.5-0.3-0.7-0.5-1-0.5
		c-1.6-0.4-4.1,0.5-4.3-2c-0.2-2.7,2.3-2.1,3.9-2.4c1.7-0.3,1.9-1.6,1.9-3c0-1.6-0.3-3-2.2-3.2c-0.9-0.1-1.9,0-2.6-0.5
		c-1.6-1.1-1.5-2.6,0.2-3.4c1.1-0.5,2.6-0.5,3.9-0.7c1-3.1,1.5-5.6-2.9-5.9c-1.2-0.1-2.4-0.7-2.3-2.2c0.1-1.4,1.1-2.1,2.4-2.1
		c2,0,3.2-0.5,3.9-2.7c0.6-2,2.5-2.8,4.6-2.8C51.6,34.4,56.9,34.4,62.2,34.4z"/>
	<path class="st9" d="M171.1,23.7c-4.8,0-9.7,0-14.3,0c-1.9-5.8-2.1-6-7.7-6c-11.5,0-23,0-34.5,0c-6.2,0-6.2,0-8.3,5.5
		c-5.4,0.9-5.4,0.9-8-3.5c-0.8-1.4-2.1-2-3.7-2c-1.8,0-3.5,0-5.3,0c-6.1,0-6.1,0-8.4,5.6c-2.1,0.8-4.3,0.4-6.5,0.4
		c-3.2,0.1-6.4,0.1-9.5,0.1c-1.5,0-3.1,0-4.6,0c-1.4,0-2.8,0.3-2.8,2.1c0,1.5,0.9,2,2.1,2.1l0,0c0.2,0,0.4,0,0.6,0
		c3.5,0,7.1-0.1,10.6,0.1c3.5,0.1,7-0.6,10.3,0.5c1.7,6.4,1.7,6.4,8.4,6.4c1.6,0,3.2,0,4.9,0c2.6,0.1,4.3-1,4.4-3.8
		c0-2.6,1.5-3.3,3.7-3.2c1.4,0.1,3-0.3,4.2,0.7c1.1,6.1,1.2,6.2,7.4,6.2c11.5,0,23,0,34.5,0c6.7,0,6.7,0,8.3-7c4.1,0,8.3,0,12.6,0
		c7.6,0,8.9,1.2,8.9,8.6c0,44.4,0,88.8,0,133.2c0,6.7-1.4,8-8.1,8c-39.4,0-78.8,0-118.2,0c-5.8,0-11.5,0.1-17.3,0
		c-4.9-0.1-6.5-2.3-5.7-7.5c6.1-1.8,6.2-1.8,6.2-8.5c0-4.9,0-9.7,0-14.6c0-7.1,0-7.1-6.4-9.4c-0.1-0.6-0.2-1.4-0.2-2.1
		c0-33.8,0-67.6,0-101.3c0-4.6,1.8-6.3,6.5-6.5c3.2-0.1,6.5,0,9.7-0.1c0.3,0,0.6,0,0.9,0c1.2-0.1,2.2-0.5,2.2-2.1c0-1.7-1.4-2-2.8-2
		c-2,0-4,0-6,0c-0.2,0-0.4,0-0.6,0c-0.8,0-1.6,0-2.4,0c-0.3,0-0.6,0-0.9,0c-1,0-2,0.1-3,0.1c-4.3,0.3-7.3,3.4-7.9,7.6
		c-0.2,1.7-0.2,3.5-0.2,5.3c0,31.6,0,63.1,0,94.7c0,1.5,0,2.9-0.1,4.4c0,1.7-0.7,2.8-2.6,2.8c-3.3,0-4.2,2.1-4.1,5
		c0.1,6.2,0,12.4,0,18.6c0,6.4,0,6.4,6.1,7.9c0.7,0.9,0.6,1.9,0.8,2.9c0.9,6.1,3.4,8.5,9.5,9c1.6,0.1,3.2,0.1,4.9,0.1
		c43.2,0,86.4,0,129.7,0c1.3,0,2.7,0,4-0.1c7.5-0.5,10.5-3.6,10.5-11.3c0-45.3,0-90.6,0-135.9C182.7,26.9,179.5,23.8,171.1,23.7z
		 M93.7,29.8c-1.7,2.1-4.5,0.9-7.2,0.6c-0.6-2.8-0.4-5.1-0.1-7.5c2.5-0.5,4.8-0.5,7.2-0.1C94.7,25.1,95.2,27.9,93.7,29.8z
		 M151.1,29.6c-1,1.1-1.9,1.1-2.8,1.1c-11.1,0-22.1,0.1-33.2,0c-4,0-4.6-1.8-3-8c12.7,0,25.5,0,38.5,0
		C151.8,25.1,151.1,27.6,151.1,29.6z M21.6,165c0-6.6-0.2-13.2,0.1-19.7c0.2-3.4,3.4-1.9,5.3-2.1c1.8-0.2,3.7-0.1,3.7,2.6
		c0,6.3,0,12.6,0,19.3C27.4,165.7,24.9,165.6,21.6,165z"/>
	<path class="st9" d="M32.3,23.9c1-0.1,2-0.1,3-0.1C34.3,23.8,33.3,23.8,32.3,23.9z"/>
	<path class="st9" d="M36.1,23.7c0.8,0,1.6,0,2.4,0C37.7,23.7,36.9,23.7,36.1,23.7z"/>
	<path class="st9" d="M47.9,25.8c0,1.7-1,2-2.2,2.1l0,0h13.7c-1.2-0.1-2.1-0.6-2.1-2.1c0-1.8,1.4-2.1,2.8-2.1c1.5,0,3.1,0,4.6,0
		c0,0,0,0,0,0v0H43v0c-1.3,0-2.6,0-3.9,0c2,0,4,0,6,0C46.5,23.7,47.9,24,47.9,25.8z"/>
</g>
</svg>
