<?xml version="1.0" encoding="utf-8"?>
<!-- Generator: Adobe Illustrator 22.0.1, SVG Export Plug-In . SVG Version: 6.00 Build 0)  -->
<svg version="1.1" id="Layer_1" xmlns="http://www.w3.org/2000/svg" xmlns:xlink="http://www.w3.org/1999/xlink" x="0px" y="0px"
	 viewBox="0 0 200 200" style="enable-background:new 0 0 200 200;" xml:space="preserve">
<style type="text/css">
	.st0{fill:none;stroke:#5AD43A;stroke-miterlimit:10;}
	.st1{fill:#CDCFD0;}
	.st2{fill:#BA272D;}
	.st3{fill:none;stroke:#FFFFFF;stroke-width:0.5;stroke-miterlimit:10;}
	.st4{fill:#5AD43A;}
	.st5{fill:#FFFFFF;}
	.st6{fill:none;}
	.st7{fill:#37CB9A;}
	.st8{fill:#33A4FE;}
	.st9{fill:#5063CB;}
	.st10{fill:#E54361;}
	.st11{fill:#E46039;}
	.st12{fill:#AE5CFB;}
	.st13{fill:#0033B4;}
	.st14{fill:#E436C6;}
	.st15{fill:#FFC700;}
	.st16{fill:#202020;}
	.st17{fill:#00FF00;}
	.st18{fill:#FF2020;}
	.st19{fill:#B8BABC;}
	.st20{opacity:0.5;}
	.st21{fill:#AD272D;}
	.st22{fill:#80B53F;}
	.st23{fill:#80B240;}
	.st24{fill:#AE272D;}
	.st25{fill:#E80A2A;}
	.st26{fill:#00AAEB;}
	.st27{fill:#214096;}
	.st28{fill:#39B14A;}
	.st29{fill:#EB1C24;}
	.st30{fill:#231F20;}
	.st31{fill:#1B75B8;}
	.st32{fill-rule:evenodd;clip-rule:evenodd;fill:#FFFFFF;}
	.st33{fill:#89C23F;}
	.st34{fill:#B70A0D;}
</style>
<g>
	<path class="st4" d="M157,98.9c0,12.8,0,25.7,0,38.5c0,10.4-6.1,16.7-16.4,16.7c-26.1,0.1-52.2,0.1-78.3,0c-9,0-14.7-5.1-16-13.9
		c-0.2-1-0.3-2-0.3-3.1c0-25.7-0.2-51.3,0.1-77c0.1-11.2,6.4-17,17.6-17c25.4,0,50.7,0,76.1,0c11.1,0,17.2,6.2,17.3,17.3
		C157,73.3,157,86.1,157,98.9z M76.3,96.9c0,7.4,0.1,14.7,0,22.1c0,2.8,1,4,3.9,3.9c14.4-0.1,28.9-0.1,43.3,0c2.9,0,3.9-1.1,3.9-3.9
		c-0.1-14.6-0.1-29.2,0-43.7c0-3-1-4.1-4.1-4.1c-14.3,0.1-28.6,0.1-42.9,0c-3.1,0-4.2,1.1-4.1,4.1C76.4,82.5,76.3,89.7,76.3,96.9z
		 M74,62.5c-0.5-2.8-2.1-4.6-5-4.5c-3.1,0.1-4.9,2.1-4.7,5.2c0.2,2.9,2.2,4.5,5.1,4.3C72.2,67.3,73.8,65.4,74,62.5z"/>
	<path class="st4" d="M105.3,172.9c0-2.2-0.1-4.4,0-6.6c0-1.4,0.6-2.7,2.3-2.7c1.7-0.1,2.4,1,2.5,2.5c0.1,4.6,0.1,9.1,0,13.7
		c0,1.4-0.6,2.7-2.2,2.7c-2,0.1-2.4-1.4-2.5-3C105.2,177.3,105.3,175.1,105.3,172.9z"/>
	<path class="st4" d="M173.3,75.9c2.2,0,4.4,0,6.6,0c1.5,0,2.6,0.6,2.6,2.3c0,1.4-1.1,2.2-2.3,2.3c-4.8,0.1-9.7,0.1-14.5,0
		c-1.2,0-2.2-0.9-2.2-2.3c0-1.7,1.2-2.2,2.7-2.3C168.6,75.9,170.9,75.9,173.3,75.9z"/>
	<path class="st4" d="M172.7,133.6c-2.3,0-4.7,0.1-7,0c-1.3-0.1-2.2-0.9-2.1-2.4c0.1-1.4,1-2.2,2.3-2.2c4.7-0.1,9.4-0.1,14.1,0
		c1.5,0,2.6,0.7,2.6,2.4c-0.1,1.7-1.4,2.2-2.7,2.3C177.4,133.8,175.1,133.7,172.7,133.6C172.7,133.7,172.7,133.7,172.7,133.6z"/>
	<path class="st4" d="M79.4,172.9c0-2.4-0.1-4.7,0-7.1c0-1.3,0.8-2.2,2.2-2.3c1.4-0.1,2.3,0.8,2.4,2.1c0.4,5,0.5,10-0.1,15
		c-0.1,1.2-1.1,2.1-2.6,1.9c-1.2-0.2-1.9-1-1.9-2.1C79.4,177.9,79.5,175.4,79.4,172.9C79.5,172.9,79.4,172.9,79.4,172.9z"/>
	<path class="st4" d="M96.6,173.2c0,2.2,0.1,4.4,0,6.6c-0.1,1.4-0.7,2.7-2.3,2.7c-1.6,0-2.3-1.1-2.3-2.6c0-4.6,0-9.1,0-13.7
		c0-1.5,0.6-2.6,2.3-2.6c1.7,0,2.3,1.2,2.4,2.6C96.7,168.5,96.6,170.9,96.6,173.2z"/>
	<path class="st4" d="M132.5,172.8c0-2.2,0-4.4,0-6.6c0-1.5,0.6-2.6,2.3-2.6c1.5,0,2.3,1,2.3,2.2c0.1,4.8,0.1,9.7,0,14.5
		c0,1.2-0.8,2.3-2.3,2.2c-1.7,0-2.3-1.2-2.3-2.6C132.5,177.5,132.5,175.2,132.5,172.8z"/>
	<path class="st4" d="M84.2,26.6c0,2.3,0.1,4.7,0,7c-0.1,1.4-0.8,2.6-2.3,2.7c-1.6,0.1-2.4-1.1-2.4-2.6c-0.1-4.7,0-9.4,0-14.1
		c0-1.3,0.8-2.2,2.2-2.3c1.5-0.1,2.3,0.9,2.4,2.1c0.2,2.3,0,4.7,0,7C84.1,26.6,84.2,26.6,84.2,26.6z"/>
	<path class="st4" d="M96.5,27c0,2.3,0.1,4.7-0.1,7c-0.1,1.4-1,2.6-2.6,2.4c-1.3-0.1-2-1.2-2-2.5c0-4.7,0-9.4,0-14.1
		c0-1.3,0.7-2.3,2.1-2.4c1.7-0.1,2.4,1,2.5,2.4C96.6,22.3,96.5,24.6,96.5,27z"/>
	<path class="st4" d="M105.3,26.3c0-2.1-0.1-4.1,0-6.1c0.1-1.4,0.6-2.6,2.3-2.7c1.6,0,2.4,1,2.4,2.5c0.1,4.5,0.1,9.1,0,13.6
		c0,1.4-0.7,2.7-2.3,2.8c-1.6,0.1-2.3-1.2-2.4-2.6C105.2,31.3,105.3,28.8,105.3,26.3C105.3,26.3,105.3,26.3,105.3,26.3z"/>
	<path class="st4" d="M132.5,26.8c0-2.2,0-4.4,0-6.6c0-1.5,0.6-2.6,2.3-2.7c1.5-0.1,2.3,0.9,2.3,2.2c0.1,4.8,0.1,9.7,0,14.5
		c0,1.2-0.9,2.3-2.3,2.3c-1.6,0-2.3-1.2-2.3-2.6C132.5,31.4,132.5,29.1,132.5,26.8z"/>
	<path class="st4" d="M27,75.9c2.3,0,4.7,0,7,0c1.3,0,2.3,0.7,2.4,2.1c0.1,1.4-0.9,2.3-2.1,2.4c-5,0.4-10,0.5-14.9,0
		c-1.3-0.1-2.1-1.1-1.9-2.5c0.2-1.4,1.1-2,2.5-2C22.3,75.9,24.7,75.9,27,75.9C27,75.9,27,75.9,27,75.9z"/>
	<path class="st4" d="M27.4,129c2.2,0,4.4,0,6.6,0c1.3,0,2.4,0.7,2.5,2c0.2,1.6-1,2.5-2.4,2.6c-4.7,0.1-9.4,0.1-14.1,0
		c-1.4,0-2.6-0.8-2.4-2.5c0.1-1.6,1.3-2.1,2.8-2.2C22.7,129,25,129,27.4,129C27.4,129,27.4,129,27.4,129z"/>
	<path class="st4" d="M66.1,26.6c0-2.2,0-4.4,0-6.6c0-1.3,0.4-2.4,1.9-2.5c1.7-0.1,2.4,1,2.4,2.5c0,4.7,0,9.4,0,14.1
		c0,1.3-0.8,2.3-2.1,2.3c-1.4,0-2.1-1-2.1-2.3C66.1,31.6,66.1,29.1,66.1,26.6C66.1,26.6,66.1,26.6,66.1,26.6z"/>
	<path class="st4" d="M26.8,66.9c-2.3,0-4.7,0-7,0c-1.3,0-2.3-0.7-2.3-2.2c0-1.4,1-2.1,2.3-2.1c4.7,0,9.4,0,14.1,0
		c1.3,0,2.4,0.5,2.5,1.9c0.1,1.7-1.1,2.3-2.5,2.4C31.5,67,29.2,66.9,26.8,66.9C26.8,66.9,26.8,66.9,26.8,66.9z"/>
	<path class="st4" d="M26.8,107.6c-2.4,0-4.7,0-7.1,0c-1.3,0-2.3-0.7-2.3-2.2c0-1.4,1-2.2,2.3-2.2c4.8,0,9.7,0,14.5,0.1
		c1.3,0,2.2,0.9,2.1,2.3c-0.1,1.2-0.9,1.9-2.1,1.9C31.8,107.6,29.3,107.5,26.8,107.6C26.8,107.5,26.8,107.5,26.8,107.6z"/>
	<path class="st4" d="M119.2,26.8c0-2.2,0-4.4,0-6.6c0-1.5,0.6-2.6,2.3-2.7c1.5,0,2,1.1,2.1,2.4c0.1,4.7,0.1,9.4,0,14.1
		c0,1.3-0.6,2.4-2,2.5c-1.7,0.1-2.3-1.1-2.3-2.6C119.1,31.5,119.2,29.1,119.2,26.8z"/>
	<path class="st4" d="M26.6,94.1c-2.3,0-4.7,0.1-7,0c-1.4-0.1-2.1-0.9-2-2.3c0.1-1.3,1-1.8,2.1-1.8c4.8-0.1,9.7-0.1,14.5,0
		c1.3,0,2.3,0.7,2.3,2.1c0,1.4-1.1,2.1-2.4,2.1C31.6,94.2,29.1,94.2,26.6,94.1C26.6,94.2,26.6,94.1,26.6,94.1z"/>
	<path class="st4" d="M172.9,94.2c-2.3,0-4.7,0-7,0c-1.3,0-2.2-0.8-2.3-2.2c-0.1-1.5,1-2.1,2.3-2.1c4.7,0,9.4-0.1,14.1,0
		c1.4,0,2.7,0.6,2.5,2.3c-0.1,1.4-1.2,1.9-2.5,1.9C177.6,94.2,175.3,94.2,172.9,94.2C172.9,94.2,172.9,94.2,172.9,94.2z"/>
	<path class="st4" d="M26.6,119.9c-2.3,0-4.7,0.1-7,0c-1.1,0-2-0.6-2-1.9c-0.1-1.4,0.7-2.3,2.1-2.3c4.8-0.1,9.7-0.1,14.5,0
		c1.3,0,2.3,0.7,2.3,2.1c0,1.4-1,2.1-2.3,2.1C31.6,120,29.1,120,26.6,119.9C26.6,119.9,26.6,119.9,26.6,119.9z"/>
	<path class="st4" d="M173.3,66.9c-2.5,0-5,0.1-7.5,0c-1.3,0-2.3-0.8-2.2-2.2c0-1.5,1-2,2.3-2.1c4.7,0,9.4,0,14.1,0
		c1.3,0,2.4,0.5,2.4,2c0.1,1.7-1.1,2.3-2.6,2.3C177.7,67,175.5,66.9,173.3,66.9C173.3,66.9,173.3,66.9,173.3,66.9z"/>
	<path class="st4" d="M173,107.6c-2.2,0-4.4,0-6.6,0c-1.4,0-2.7-0.4-2.8-2.1c-0.1-1.7,1.2-2.3,2.6-2.3c4.5-0.1,9.1-0.1,13.6,0
		c1.4,0,2.7,0.6,2.6,2.3c-0.1,1.7-1.5,2.1-2.8,2.1C177.4,107.7,175.2,107.6,173,107.6z"/>
	<path class="st4" d="M173,120c-2.2,0-4.4,0-6.6,0c-1.4,0-2.7-0.4-2.8-2.1c-0.1-1.7,1.2-2.2,2.6-2.2c4.5,0,9.1,0,13.6,0
		c1.5,0,2.7,0.6,2.6,2.3c-0.1,1.7-1.5,2-2.8,2.1C177.4,120,175.2,120,173,120z"/>
	<path class="st4" d="M66.1,172.9c0-2.2,0-4.4,0-6.6c0-1.4,0.4-2.7,2.2-2.7c1.4,0,2.1,1,2.1,2.3c0.1,4.7,0.1,9.4,0,14
		c0,1.2-0.5,2.4-2,2.5c-1.7,0.1-2.3-1.1-2.3-2.5C66.1,177.5,66.1,175.2,66.1,172.9z"/>
	<path class="st4" d="M119.2,172.9c0-2.3,0-4.7,0-7c0-1.3,0.7-2.3,2.1-2.3c1.4,0,2.1,1,2.2,2.3c0.1,4.7,0.1,9.4,0,14
		c0,1.4-0.6,2.7-2.4,2.5c-1.4-0.1-1.9-1.2-1.9-2.5C119.2,177.6,119.2,175.3,119.2,172.9C119.2,172.9,119.2,172.9,119.2,172.9z"/>
</g>
</svg>
