<?xml version="1.0" encoding="utf-8"?>
<!-- Generator: Adobe Illustrator 22.0.1, SVG Export Plug-In . SVG Version: 6.00 Build 0)  -->
<svg version="1.1" id="Layer_1" xmlns="http://www.w3.org/2000/svg" xmlns:xlink="http://www.w3.org/1999/xlink" x="0px" y="0px"
	 viewBox="0 0 200 200" style="enable-background:new 0 0 200 200;" xml:space="preserve">
<style type="text/css">
	.st0{fill:#EE2737;}
	.st1{fill:#FFFFFF;}
	.st2{fill:#00AA13;}
	.st3{fill:#DF1995;}
	.st4{fill:#383838;}
	.st5{fill:#00AED6;}
	.st6{fill:#93328E;}
	.st7{fill:#F06400;}
	.st8{fill:none;}
	.st9{fill:#F8F8F8;}
	.st10{fill:#F2F2F2;}
	.st11{fill:#231F20;}
	.st12{fill:#D1D3D4;}
	.st13{fill:#ED1C24;}
	.st14{fill:#FFFFFF;stroke:#ED1C24;stroke-width:3;stroke-miterlimit:10;}
	.st15{fill:#ED1C24;stroke:#FFFFFF;stroke-width:3;stroke-miterlimit:10;}
</style>
<path class="st1" d="M100,143c0.2,0,0.4,0,0.5,0h-1.1C99.6,142.9,99.8,143,100,143z"/>
<path class="st1" d="M135.5,107.5c0-0.3,0-0.5,0-0.8v1.6C135.5,108,135.5,107.7,135.5,107.5z"/>
<path class="st1" d="M100,72c-0.2,0-0.4,0-0.5,0h1.1C100.4,72,100.2,72,100,72z"/>
<path class="st1" d="M64.5,107.5c0,0.3,0,0.5,0,0.8v-1.6C64.5,106.9,64.5,107.2,64.5,107.5z"/>
<g>
	<path class="st7" d="M148.9,67.2c-0.5-0.4-1-0.9-1.5-1.3c-5.3-5.1-10.7-10-16.3-14.9c-4.6-4-9.3-7.9-13.9-11.9
		c-1.7-1.4-3.3-2.8-5-4.1c-2.7-2.1-6.5-2.2-9.2-0.1c-4.6,3.7-9.2,7.5-13.7,11.4c-6,5.1-11.9,10.3-17.6,15.8
		c-0.1,0.1-0.3,0.2-0.5,0.3c-3.2,3.2-6.4,6.4-9.7,9.7c-0.3,0.6-0.8,1-1.2,1.4c-3.1,3.3-6.2,6.6-9.2,10l-3.4-3.4l-5.3,5.3L39,81.8
		c-0.6-0.6-0.6-1.5,0-2.1l36.6-36.6c1.8,1.8,4.7,1.8,6.5,0l6.1-6.1l-1.7-1.7l3.3-3.3c0.4-0.4,0.4-1.1,0-1.5l-0.2-0.2
		c-0.4-0.4-1.1-0.4-1.5,0l-3.3,3.3l-1.9-1.9l3.3-3.3c0.4-0.4,0.4-1.1,0-1.5L86,26.6c-0.4-0.4-1.1-0.4-1.5,0l-3.3,3.3l-1.7-1.7
		l-6.1,6.1c-1.8,1.8-1.8,4.7-0.1,6.5L34.9,79.1c-1,1-1,2.6,0,3.5l5.2,5.2l-5.8,5.8l4.5,4.5c-1.1,1.3-2.2,2.6-3.3,3.9
		c-2.7,3.2-2.8,7.1-0.1,10.3c4.8,5.9,9.7,11.7,14.6,17.4c5.7,6.6,11.6,13.2,17.8,19.4c0.3,0.3,0.5,0.6,0.8,0.9c2.3,2.3,4.7,4.7,7,7
		c0.2,0.2,0.5,0.3,0.7,0.5c3.2,3.2,6.6,6.3,9.9,9.4c3.7,3.4,7.5,6.7,11.3,9.9c0.9,0.7,1.7,1.4,2.5,2.2c2.9,2.6,7,2.6,9.9,0.1
		c3.6-3.1,7.2-6.2,10.8-9.3c2.9-2.5,5.8-5.1,8.7-7.7c2.9-2.6,5.8-5.2,8.6-8c0.2-0.2,0.4-0.3,0.6-0.4c5.2-5.2,10.4-10.4,15.6-15.6
		c1.7-1.8,3.3-3.7,5-5.5c3.9-4.2,7.8-8.5,11.6-12.9c2.9-3.4,5.8-6.8,8.8-10.2c2.4-2.7,2.5-6.9,0.1-9.6c-5.6-6.6-11.4-13.2-17.3-19.5
		c-1.6-1.7-3.3-3.2-4.8-5C154.5,72.8,151.7,70,148.9,67.2z M104.8,42c1.3-1.3,3.4-1.3,4.7,0c1.3,1.3,1.3,3.4,0,4.7
		c-1.3,1.3-3.4,1.3-4.7,0C103.5,45.4,103.5,43.3,104.8,42z M41.6,105.2c1.3-1.3,3.4-1.3,4.7,0c1.3,1.3,1.3,3.4,0,4.7
		c-1.3,1.3-3.4,1.3-4.7,0C40.3,108.6,40.3,106.5,41.6,105.2z M108.5,172.1c-1.3,1.3-3.4,1.3-4.7,0s-1.3-3.4,0-4.7
		c1.3-1.3,3.4-1.3,4.7,0C109.8,168.7,109.8,170.8,108.5,172.1z M171.6,108.9c-1.3,1.3-3.4,1.3-4.7,0c-1.3-1.3-1.3-3.4,0-4.7
		c1.3-1.3,3.4-1.3,4.7,0S172.9,107.6,171.6,108.9z"/>
	<g>
		<g>
			<path class="st1" d="M74,73.8c-17.5,17.5-17.5,45.9,0,63.4c17.5,17.5,45.9,17.5,63.4,0c17.5-17.5,17.5-45.9,0-63.4
				C120,56.2,91.6,56.2,74,73.8z M133.8,133.5c-15.5,15.5-40.6,15.5-56.1,0c-15.5-15.5-15.5-40.6,0-56.1c15.5-15.5,40.6-15.5,56.1,0
				C149.3,92.9,149.3,118,133.8,133.5z"/>
			<path class="st1" d="M129.2,82.4c-2.9-2.8-6.3-5.1-10.2-6.7l-1.4-0.5c-4.1-1.5-8.4-2.2-12.5-2.1l0.7,24.4c-2.3,0.1-4.4,1-6,2.6
				l-17.5-17c-2.8,2.9-5.2,6.4-6.8,10.4l-0.4,0.9c-1.6,4.2-2.3,8.5-2.2,12.7l24.4-0.7c0.1,2.3,1,4.4,2.6,6l-17,17.5
				c2.9,2.8,6.3,5.1,10.2,6.7l1.4,0.5c4.1,1.5,8.4,2.2,12.5,2.1l-0.7-24.4c2.3-0.1,4.4-1,6-2.6l17.5,17c2.8-2.9,5.2-6.4,6.8-10.4
				l0.4-0.9c1.6-4.2,2.3-8.5,2.2-12.7l-24.4,0.7c-0.1-2.3-1-4.4-2.6-6L129.2,82.4z"/>
		</g>
	</g>
</g>
</svg>
