<?xml version="1.0" encoding="utf-8"?>
<!-- Generator: Adobe Illustrator 22.0.1, SVG Export Plug-In . SVG Version: 6.00 Build 0)  -->
<svg version="1.1" id="Layer_1" xmlns="http://www.w3.org/2000/svg" xmlns:xlink="http://www.w3.org/1999/xlink" x="0px" y="0px"
	 viewBox="0 0 200 200" style="enable-background:new 0 0 200 200;" xml:space="preserve">
<style type="text/css">
	.st0{fill:none;stroke:#5AD43A;stroke-miterlimit:10;}
	.st1{fill:#CDCFD0;}
	.st2{fill:#BA272D;}
	.st3{fill:none;stroke:#FFFFFF;stroke-width:0.5;stroke-miterlimit:10;}
	.st4{fill:#5AD43A;}
	.st5{fill:#FFFFFF;}
	.st6{fill:none;}
	.st7{fill:#37CB9A;}
	.st8{fill:#33A4FE;}
	.st9{fill:#5063CB;}
	.st10{fill:#E54361;}
	.st11{fill:#E46039;}
	.st12{fill:#AE5CFB;}
	.st13{fill:#0033B4;}
	.st14{fill:#E436C6;}
	.st15{fill:#FFC700;}
	.st16{fill:#202020;}
	.st17{fill:#00FF00;}
	.st18{fill:#FF2020;}
	.st19{fill:#B8BABC;}
	.st20{opacity:0.5;}
	.st21{fill:#AD272D;}
	.st22{fill:#80B53F;}
	.st23{fill:#80B240;}
	.st24{fill:#AE272D;}
	.st25{fill:#E80A2A;}
	.st26{fill:#00AAEB;}
	.st27{fill:#214096;}
	.st28{fill:#39B14A;}
	.st29{fill:#EB1C24;}
	.st30{fill:#231F20;}
	.st31{fill:#1B75B8;}
	.st32{fill-rule:evenodd;clip-rule:evenodd;fill:#FFFFFF;}
	.st33{fill:#89C23F;}
	.st34{fill:#B70A0D;}
</style>
<g>
	
		<rect x="61.5" y="117.5" transform="matrix(0.7071 -0.7071 0.7071 0.7071 -65.227 79.4747)" class="st7" width="3.6" height="1.9"/>
	<rect x="114" y="170" transform="matrix(0.7071 -0.7071 0.7071 0.7071 -86.9461 131.9093)" class="st7" width="3.6" height="1.9"/>
	
		<rect x="85.1" y="141.2" transform="matrix(0.7071 -0.7071 0.7071 0.7071 -75.0137 103.1018)" class="st7" width="3.6" height="1.9"/>
	<path class="st7" d="M157.7,158.5h-32.1l0,0l0,0h0v0L41,73.9l0,0h0V42.4l-3.4,0.1c-1.2,0-2.3,0.5-3.2,1.4L20.9,57.4
		c-1.8,1.8-1.8,4.6-0.1,6.3l2.5,2.5c1.7,1.7,1.7,4.5-0.1,6.3l-2.6,2.6c-1.8,1.8-1.8,4.6-0.1,6.3l41.7,41.7c1.7,1.7,4.5,1.7,6.3-0.1
		l1.5-1.5c1.8-1.8,4.1-1.3,5.8,0.4l2.5,2.5c1.7,1.7,2.2,4,0.4,5.8l-1.5,1.5c-1.8,1.8-1.8,4.6-0.1,6.3l41.7,41.7
		c1.7,1.7,4.5,1.7,6.3-0.1l2.6-2.6c1.8-1.8,4.6-1.8,6.3-0.1l2.5,2.5c1.7,1.7,4.5,1.7,6.3-0.1l13.5-13.5c0.9-0.9,1.3-2,1.4-3.2
		L157.7,158.5z M25.4,83.1l-1.3-1.3l2.5-2.5l1.3,1.3L25.4,83.1z M28.3,86L27,84.7l2.5-2.5l1.3,1.3L28.3,86z M41.1,98.8L30.2,87.9
		l2.5-2.5l10.9,10.9L41.1,98.8z M54.2,111.9L43.3,101l2.5-2.5l10.9,10.9L54.2,111.9z M57.1,114.8l-1.3-1.3l2.5-2.5l1.3,1.3
		L57.1,114.8z M60,117.7l-1.3-1.3l2.5-2.5l1.3,1.3L60,117.7z M80.8,138.5l-1.3-1.3l2.5-2.5l1.3,1.3L80.8,138.5z M83.5,141.2
		l-1.3-1.3l2.5-2.5l1.3,1.3L83.5,141.2z M99.1,156.9L88.2,146l2.6-2.5l10.9,10.9L99.1,156.9z M111.7,169.5l-10.4-10.4l2.5-2.5
		l10.4,10.4L111.7,169.5z M118,175.7l-1.3-1.3l2.5-2.5l1.3,1.3L118,175.7z"/>
	<path class="st7" d="M127.4,153.7h32.1l2.7-2.7l7-0.1c1.2,0,2.3-0.5,3.2-1.4l9-9c1.8-1.8,1.8-4.6,0.1-6.3l-8.7-8.7
		c-0.8-0.8-2-1.3-3.1-1.3l-5.2,0.1c-1.2,0-2.3-0.4-3.1-1.3L77,38.6c-0.8-0.8-1.3-2-1.3-3.1l0.1-5.2c0-1.2-0.4-2.3-1.3-3.1l-8.8-8.8
		c-1.7-1.7-4.6-1.7-6.3,0.1c-1.5,1.6-3.3,3.4-4.4,4.6c-0.8,0.8-1.3,1.9-1.3,3.1l-0.1,5.2c0,1.2-0.5,2.3-1.4,3.2L45.9,41
		c-0.1,0.1-0.1,0.1-0.2,0.1V72L127.4,153.7z"/>
</g>
</svg>
