<?xml version="1.0" encoding="utf-8"?>
<!-- Generator: Adobe Illustrator 22.0.1, SVG Export Plug-In . SVG Version: 6.00 Build 0)  -->
<svg version="1.1" id="Layer_1" xmlns="http://www.w3.org/2000/svg" xmlns:xlink="http://www.w3.org/1999/xlink" x="0px" y="0px"
	 viewBox="0 0 200 200" style="enable-background:new 0 0 200 200;" xml:space="preserve">
<style type="text/css">
	.st0{fill:none;stroke:#5AD43A;stroke-miterlimit:10;}
	.st1{fill:#CDCFD0;}
	.st2{fill:#BA272D;}
	.st3{fill:none;stroke:#FFFFFF;stroke-width:0.5;stroke-miterlimit:10;}
	.st4{fill:#5AD43A;}
	.st5{fill:#FFFFFF;}
	.st6{fill:none;}
	.st7{fill:#37CB9A;}
	.st8{fill:#33A4FE;}
	.st9{fill:#5063CB;}
	.st10{fill:#E54361;}
	.st11{fill:#E46039;}
	.st12{fill:#AE5CFB;}
	.st13{fill:#0033B4;}
	.st14{fill:#E436C6;}
	.st15{fill:#FFC700;}
	.st16{fill:#202020;}
	.st17{fill:#00FF00;}
	.st18{fill:#FF2020;}
	.st19{fill:#B8BABC;}
	.st20{opacity:0.5;}
	.st21{fill:#AD272D;}
	.st22{fill:#80B53F;}
	.st23{fill:#80B240;}
	.st24{fill:#AE272D;}
	.st25{fill:#E80A2A;}
	.st26{fill:#00AAEB;}
	.st27{fill:#214096;}
	.st28{fill:#39B14A;}
	.st29{fill:#EB1C24;}
	.st30{fill:#231F20;}
	.st31{fill:#1B75B8;}
	.st32{fill-rule:evenodd;clip-rule:evenodd;fill:#FFFFFF;}
	.st33{fill:#89C23F;}
	.st34{fill:#B70A0D;}
</style>
<g>
	<path class="st10" d="M156.5,17.2c-4.7,0-9.3,0-14,0c0,2,0,4,0,6H111c0-2,0-4-0.3-6c-2.2,0-4.4,0-6.6,0c-0.2,2-0.3,4-0.2,6H57.2
		c0-2,0.1-4-0.3-6c-4.4,0-8.9,0-13.3,0C40.3,19.1,39,22,39,25.8c0,49.5,0,99,0,148.6c0,6.2,2.3,8.4,8.5,8.4c34.8,0,69.6,0,104.3,0
		c6.8,0,9.1-2.1,9.1-9c0.1-21.3,0-42.5,0-63.8c0-27.6,0-55.3,0-82.9C161,23,160.3,19.5,156.5,17.2z M145.3,162.8
		c0,5.5-0.1,5.6-5.5,5.6c-22,0-44-0.3-66,0.1c-9.9,0.2-19.6-6.3-19-18.9c0.6-14.7,0.1-29.5,0.1-44.3c0-15.9,0-31.7,0-47.6
		c0-4.8,0.3-5.1,5-5.1c22.5,0,45,0,67.5,0c11.4,0,18,6.8,18,18.2C145.3,101.6,145.3,132.2,145.3,162.8z"/>
	<g>
		<path class="st10" d="M63.1,138.7c1.9,1,4.9,2,8,2c3.3,0,5-1.4,5-3.4c0-2-1.5-3.1-5.3-4.5c-5.3-1.8-8.7-4.8-8.7-9.4
			c0-5.4,4.5-9.6,12-9.6c3.6,0,6.2,0.8,8.1,1.6l-1.6,5.8c-1.3-0.6-3.5-1.5-6.6-1.5s-4.6,1.4-4.6,3.1c0,2,1.8,2.9,5.9,4.5
			c5.6,2.1,8.2,5,8.2,9.5c0,5.3-4.1,9.8-12.8,9.8c-3.6,0-7.2-0.9-9-1.9L63.1,138.7z"/>
		<path class="st10" d="M88.5,138.7c1.9,1,4.9,2,8,2c3.3,0,5-1.4,5-3.4c0-2-1.5-3.1-5.3-4.5c-5.3-1.8-8.7-4.8-8.7-9.4
			c0-5.4,4.5-9.6,12-9.6c3.6,0,6.2,0.8,8.1,1.6l-1.6,5.8c-1.3-0.6-3.5-1.5-6.6-1.5c-3.1,0-4.6,1.4-4.6,3.1c0,2,1.8,2.9,5.9,4.5
			c5.6,2.1,8.2,5,8.2,9.5c0,5.3-4.1,9.8-12.8,9.8c-3.6,0-7.2-0.9-9-1.9L88.5,138.7z"/>
		<path class="st10" d="M113.7,114.8c2.6-0.4,6.1-0.7,9.7-0.7c6,0,9.9,1.1,13,3.4c3.3,2.4,5.4,6.4,5.4,12c0,6.1-2.2,10.3-5.3,12.8
			c-3.3,2.8-8.4,4.1-14.6,4.1c-3.7,0-6.4-0.2-8.1-0.5V114.8z M120.9,140.7c0.6,0.1,1.6,0.1,2.5,0.1c6.5,0,10.7-3.5,10.7-11.1
			c0-6.6-3.8-10.1-10-10.1c-1.6,0-2.6,0.1-3.2,0.3V140.7z"/>
	</g>
</g>
</svg>
