<?xml version="1.0" encoding="utf-8"?>
<!-- Generator: Adobe Illustrator 22.0.1, SVG Export Plug-In . SVG Version: 6.00 Build 0)  -->
<svg version="1.1" id="Layer_1" xmlns="http://www.w3.org/2000/svg" xmlns:xlink="http://www.w3.org/1999/xlink" x="0px" y="0px"
	 viewBox="0 0 200 200" style="enable-background:new 0 0 200 200;" xml:space="preserve">
<style type="text/css">
	.st0{fill:none;stroke:#5AD43A;stroke-miterlimit:10;}
	.st1{fill:#CDCFD0;}
	.st2{fill:#BA272D;}
	.st3{fill:none;stroke:#FFFFFF;stroke-width:0.5;stroke-miterlimit:10;}
	.st4{fill:#5AD43A;}
	.st5{fill:#FFFFFF;}
	.st6{fill:none;}
	.st7{fill:#37CB9A;}
	.st8{fill:#33A4FE;}
	.st9{fill:#5063CB;}
	.st10{fill:#E54361;}
	.st11{fill:#E46039;}
	.st12{fill:#AE5CFB;}
	.st13{fill:#0033B4;}
	.st14{fill:#E436C6;}
	.st15{fill:#FFC700;}
	.st16{fill:#202020;}
	.st17{fill:#00FF00;}
	.st18{fill:#FF2020;}
	.st19{fill:#B8BABC;}
	.st20{opacity:0.5;}
	.st21{fill:#AD272D;}
	.st22{fill:#80B53F;}
	.st23{fill:#80B240;}
	.st24{fill:#AE272D;}
	.st25{fill:#E80A2A;}
	.st26{fill:#00AAEB;}
	.st27{fill:#214096;}
	.st28{fill:#39B14A;}
	.st29{fill:#EB1C24;}
	.st30{fill:#231F20;}
	.st31{fill:#1B75B8;}
	.st32{fill-rule:evenodd;clip-rule:evenodd;fill:#FFFFFF;}
	.st33{fill:#89C23F;}
	.st34{fill:#B70A0D;}
</style>
<g>
	<path class="st8" d="M132.3,79.3c15.5,15.5,31,31,46.5,46.5c5.5,5.5,5.5,7.2,0.1,12.6c-13.6,13.7-27.3,27.3-40.9,40.9
		c-5.4,5.3-7,5.3-12.2,0.1c-7.3-7.3-14.7-14.6-22-22c-1.9-1.9-3.6-3.2-6.4-1.2c-2,1.5-4.1,0.8-5.9-0.9C76.2,140,61,124.7,45.6,109.4
		c-1.9-1.9-2.7-4-1-6.3c1.9-2.6,0.7-4.2-1.1-6C39.3,93,35,88.7,30.8,84.5c-1.1-1.1-2.4-2.2-2.7-3.9c-0.4-1.9,0.2-3.5,1.8-4.6
		c1.7-1.1,2.7,0.3,3.7,1.3c2.8,2.8,5.7,5.5,8.4,8.4c2.5,2.7,4.8,2.9,7.4,0.1c2.9-3.1,5.9-6.1,9-9c3-2.7,3.3-5.2,0.1-8
		c-2.8-2.5-5.4-5.4-8.1-8c-1.9-1.9-2.2-3.6-0.1-5.6c2-2,3.5-1.1,5.2,0.5c5.2,4.8,5.6,4.7,10.6-0.3c3.8-3.8,7.6-7.7,11.5-11.5
		c2.6-2.5,2.4-4.6,0-7.1c-1.7-1.8-5.3-3.3-2.1-6.7c2.4-2.6,5.2-2.2,8.7,1.2C100.3,47.3,116.3,63.3,132.3,79.3z M82,118.3
		c4.5,4.5,9,9.1,13.6,13.6c3.6,3.5,5.5,3.6,8.9,0.2c9.1-9,18.2-18.2,27.3-27.2c3-2.9,3-5.7,0-8.7c-9.1-9.1-18.2-18.1-27.2-27.2
		c-2.9-2.9-5.7-3.2-8.7-0.1c-9.2,9.2-18.4,18.3-27.5,27.6c-3.3,3.3-3.1,5.1,0.3,8.5C73.1,109.4,77.6,113.8,82,118.3z"/>
	<path class="st8" d="M48.5,54.4C40.3,62.5,32.2,70.7,24,78.8c-0.8,0.8-1.7,1.7-2.5,2.4c-1.1,0.9-2.3,1.5-3.4,0.2
		c-1.2-1.3-0.5-2.4,0.5-3.5c0.9-1,1.8-1.9,2.7-2.8c15.3-15.3,30.5-30.6,45.9-45.8c2.9-2.8,3.6-5,0.2-7.8c-1.3-1.1-2.8-2.7-1.1-4.5
		c1.9-2.1,3.4-0.3,4.8,0.9c7.2,6.4,7.2,6.6,0.4,13.4C63.8,39.1,56.1,46.7,48.5,54.4z"/>
	<path class="st8" d="M83.5,117.3c-10.1-10.1-9.8-23.7,0.8-34.3c9.1-9.1,23.3-8.5,33.1,1.3c9.8,9.8,9.1,23.5-1.7,34.4
		C107.2,127.1,92.7,126.5,83.5,117.3z M87,85.4c-1.9,1.6-3.7,3.3,0.9,4.9c2.2,0.7,4.1,2.2,6,3.5c1,0.7,2.8,1.3,1.9,2.9
		c-0.7,1.3-2.1,0-3.1-0.3c-1.9-0.7-3.8-1.5-5.8-2c-6.5-1.7-7-1.1-6.7,5.5c0.1,2.9,1.2,3.1,3.5,2.2c2.7-1.1,5.6-1.8,8.5-1.8
		c0.8,0,2-0.2,2.2,0.8c0.2,1.1-0.9,1.4-1.7,1.6c-3.3,1.2-6.4,2.8-9.2,5c-0.9,0.7-1.9,1.7-1.2,3c1.2,2,2.7,4,4.9,4.8
		c1.7,0.6,1.9-1.4,2.5-2.5c1.4-2.2,2.6-4.6,4-6.8c0.5-0.8,1.4-1.8,2.5-1.1c0.9,0.6,0.2,1.6-0.1,2.4c-1.6,3.2-2.4,6.6-3,10
		c-0.5,2.3,0.4,3.3,2.7,3.2c1.2-0.1,2.3-0.1,3.5,0c2.5,0.1,3.2-0.9,2.3-3.2c-1.1-2.7-1.8-5.6-2-8.5c-0.1-1-0.4-2.4,0.8-2.6
		c1.3-0.3,1.4,1.2,1.8,2.1c1.3,3.3,3,6.4,5.2,9.1c0.8,0.9,1.9,1.7,3,0.9c1.9-1.4,4-2.7,4.6-5.1c0.3-1.3-1.4-1.7-2.5-2.1
		c-2.6-1.1-5-2.4-7.1-4.2c-0.6-0.5-1.5-1.3-0.9-2.2c0.6-0.9,1.6-0.3,2.4-0.1c2.3,0.8,4.7,1.8,7.1,2.4c5.9,1.4,6.1,1.1,5.9-5
		c-0.1-3-1.2-3.5-3.8-2.6c-2.3,0.8-4.8,1.2-7.2,1.7c-1.1,0.2-2.6,0.7-2.9-0.9c-0.2-1.2,1.2-1.5,2.1-1.8c2.9-1,5.6-2.5,8.1-4.3
		c1.1-0.8,2.2-1.8,1.3-3.3c-1.1-1.9-2.6-3.7-4.7-4.5c-1.7-0.6-1.8,1.4-2.5,2.5c-1.1,1.9-2.1,3.8-3.3,5.7c-0.6,1-1.4,2.4-2.6,1.8
		c-1.6-0.7-0.3-2,0-3c0.7-1.9,1.5-3.8,2.1-5.8c1.6-6.1,0.4-7.3-5.7-7c-2.2,0.1-2.9,0.8-2,3c1.2,3,2,6.1,2.1,9.4
		c0,0.7,0.1,1.6-0.7,1.9c-1.2,0.4-1.5-0.7-1.7-1.5c-1-2.8-2.3-5.4-4-7.8C91.4,81.5,91,81.5,87,85.4z"/>
	<path class="st8" d="M101.6,71.8c-0.9,0.8-1.9,0.8-2.7,0c-0.7-0.7-0.8-1.6-0.2-2.4c0.8-1,1.8-1,2.7-0.3
		C102.4,69.9,102.3,70.8,101.6,71.8z"/>
	<path class="st8" d="M131.7,101.9c-0.9,0.8-1.9,0.8-2.7-0.1c-0.7-0.7-0.7-1.6-0.1-2.4c0.8-0.9,1.7-1.1,2.6-0.3
		C132.4,100,132.4,101,131.7,101.9z"/>
	<path class="st8" d="M71.1,102.2c-1.1,0.6-2,0.4-2.6-0.7c-0.4-0.8-0.3-1.7,0.5-2.4c1-0.8,2-0.5,2.7,0.4
		C72.4,100.5,72.1,101.4,71.1,102.2z"/>
	<path class="st8" d="M99,132.1c-0.9-0.9-1-1.8-0.2-2.7c0.7-0.7,1.5-0.9,2.4-0.3c1,0.7,1.2,1.7,0.5,2.6
		C101,132.7,100,132.7,99,132.1z"/>
</g>
</svg>
